<svg id="Layer_1" data-name="Layer 1" xmlns="http://www.w3.org/2000/svg" width="50" height="50" viewBox="0 0 50 50"><defs><style>.cls-1{fill:#b03ce3;}</style></defs><path class="cls-1" d="M43.4662,8.1713c-.0525,1.6665-.1939,3.3286-.34,4.99a.688.688,0,0,1-.4637.4814,12.9622,12.9622,0,0,1-2.1651-.0574,1.4355,1.4355,0,0,1-1.3633-1.1615,2.9954,2.9954,0,0,0-3.5868-2.1185,3.1763,3.1763,0,0,0-2.4364,3.5123,3.2463,3.2463,0,0,0,3.05,2.7635,2.8646,2.8646,0,0,1,1.0878.2987,10.3493,10.3493,0,0,0,5.56,1.0939c-.0832,1.2352-.1386,2.4056-.2581,3.57a1.4206,1.4206,0,0,1-.4447.7272Q28.9617,35.5707,15.8043,48.8561c-.1035.1046-.2115.2047-.315.3063a2.0911,2.0911,0,0,1-3.3622-.0236Q6.8716,43.8324,1.62,38.523c-.3266-.33-.66-.6521-.9754-.9922A2.1157,2.1157,0,0,1,.59,34.5389q.0452-.0468.0931-.0908,8.801-8.9013,17.6088-17.794c3.0211-3.0519,6.0334-6.114,9.0763-9.1451a2.07,2.07,0,0,1,1.1839-.58c4.2138-.3223,8.4309-.5991,12.6471-.8774a2.0382,2.0382,0,0,1,2.2672,2.12Z" transform="translate(0.0027 0.0018)"/><path class="cls-1" d="M45.3544,15.753A8.1917,8.1917,0,0,1,35.2326,13.27c-.6327-.8627-.5292-1.1453.6008-1.534a7.132,7.132,0,0,0,3.0619,2.7953,6.4974,6.4974,0,0,0,6.9476-.71A6.5529,6.5529,0,0,0,48.51,7.1726,6.7811,6.7811,0,0,0,36.0652,4.54c-.4694.7317-1.14.4255-1.8488.5624a8.0383,8.0383,0,0,1,4.972-4.67A8.1667,8.1667,0,0,1,49.5428,5.5461q.1222.3611.2105.7322A8.3408,8.3408,0,0,1,45.3544,15.753Z" transform="translate(0.0027 0.0018)"/></svg>