<svg id="Layer_1" data-name="Layer 1" xmlns="http://www.w3.org/2000/svg" width="19.0003" height="19" viewBox="0 0 19.0003 19"><defs><style>.cls-1{fill:#b03ce3;}</style></defs><path class="cls-1" d="M19.4066,11.499h2a8.8068,8.8068,0,0,0-9.01-8.999v2A6.7744,6.7744,0,0,1,19.4066,11.499Z" transform="translate(-2.4063 -2.5)"/><path class="cls-1" d="M12.4066,8.5c2.103,0,3,.897,3,3h2c0-3.225-1.775-5-5-5Zm3.422,5.443a1.001,1.001,0,0,0-1.391.043l-2.393,2.461a5.741,5.741,0,0,1-2.926-1.66,5.7129,5.7129,0,0,1-1.66-2.926l2.459-2.394a1,1,0,0,0,.043-1.391L6.2656,4.013a1,1,0,0,0-1.391-.087l-2.17,1.861a1,1,0,0,0-.29.649,15.1027,15.1027,0,0,0,4.291,10.766A15.1425,15.1425,0,0,0,17.1116,21.5c.202,0,.326-.006.359-.008a.992.992,0,0,0,.648-.291l1.86-2.171a1,1,0,0,0-.086-1.391Z" transform="translate(-2.4063 -2.5)"/></svg>