<svg id="Layer_1" data-name="Layer 1" xmlns="http://www.w3.org/2000/svg" width="50" height="50" viewBox="0 0 50 50"><defs><style>.cls-1{fill:#b03ce3;}</style></defs><path d="M24.9965,13.442q12.0387.001,24.0774.001c.16,0,.32.01.48.0044.3224-.0117.4488.1534.4417.4589-.0066.2846-.0054.5693-.0054.854q.0006,15.6132.0018,31.2264A3.8185,3.8185,0,0,1,45.8811,50c-5.6588-.0328-11.3178-.0178-16.9768-.0177q-12.4924,0-24.9849.0055A3.7528,3.7528,0,0,1,.0054,46Q.0085,36.7917.01,27.5839q.0013-6.6456.001-13.2912c0-.8507-.0032-.8513.8544-.8513Q12.931,13.4413,24.9965,13.442Zm-2.95,29.5946a.9751.9751,0,0,0,.9381-.8151c.2651-1.047.5293-2.0943.8087-3.1376.5686-2.1225,1.1551-4.24,1.719-6.3641.5556-2.0926,1.091-4.19,1.6378-6.2855.5868-2.2485,1.1807-4.4951,1.7625-6.7449a1.0169,1.0169,0,0,0-.67-1.318.9956.9956,0,0,0-1.2158.827c-.4445,1.6421-.8759,3.2877-1.3128,4.9318q-1.005,3.7812-2.0087,7.5627c-.4468,1.6964-.8739,3.398-1.3193,5.0949-.441,1.68-.9008,3.3553-1.338,5.0363A.9421.9421,0,0,0,22.0467,43.0366ZM17.9236,25.0907a4.0348,4.0348,0,0,0-.7606.3863c-.3769.3221-.72.6842-1.0717,1.035-1.0934,1.09-2.19,2.1775-3.2745,3.2764-.6322.64-.6976,1.0886-.1487,1.6579q2.1957,2.2776,4.4548,4.4937a.947.947,0,0,0,1.5489-.2047c.2686-.3959.2191-.8167-.2345-1.2893-.884-.921-1.7917-1.8193-2.6952-2.7214-1.2505-1.2484-1.11-.8864.02-2.0626.9344-.9722,1.9066-1.9091,2.8107-2.9082a1.0182,1.0182,0,0,0,.148-.9055C18.58,25.5417,18.2052,25.3427,17.9236,25.0907Zm14.4133.108c-.7842.0178-1.2985.5915-1.13,1.1536a2.28,2.28,0,0,0,.5807.8661c.9559.9794,1.9372,1.9341,2.9085,2.8986.59.5863.5894.5863.0106,1.1574-.19.1871-.3753.3783-.5638.5666-.8539.8527-1.7134,1.7-2.56,2.56a1.0561,1.0561,0,0,0-.1476,1.52,1.0385,1.0385,0,0,0,1.59-.1367c.2856-.2913.5806-.5732.8693-.8615q1.6761-1.6741,3.35-3.3507A1.0349,1.0349,0,0,0,37.286,29.9c-.2516-.2748-.5278-.527-.7917-.7906-1.1566-1.1552-2.3053-2.3184-3.4756-3.46A3.5893,3.5893,0,0,0,32.3369,25.1987Z" transform="translate(0)"/><path d="M24.99,11.4339q-12.1708,0-24.3416.0074c-.4806.0006-.6557-.1421-.648-.6406.04-2.525-.0109-5.0528.0892-7.5749A3.4664,3.4664,0,0,1,3.259.0842C3.7008.0424,4.1461.0174,4.59.0172Q25.3017.01,46.0134,0a3.8135,3.8135,0,0,1,3.9694,3.729c.0146,2.4194.0069,4.839.0172,7.2584.0014.3292-.1534.4431-.4549.4407-.3736-.0029-.7473.0057-1.121.0057Q36.707,11.4344,24.99,11.4339Zm9.4431-5.6883V5.7435q-4.4583,0-8.9164.0014a1.8,1.8,0,0,0-.7381.0471,1.477,1.477,0,0,0-.7184.6157,1.1484,1.1484,0,0,0,.1281.8766c.263.4615.7739.4435,1.24.4438q9.05.0043,18.1.0008a2.3555,2.3555,0,0,0,.7363-.0919.96.96,0,0,0-.1165-1.8615,2.8064,2.8064,0,0,0-.5846-.0288Q38.9979,5.7444,34.4329,5.7456Zm-27.3907,1H7.0385c0-.3376.0175-.6764-.0038-1.0127a.9514.9514,0,0,0-.9781-.9816A.9978.9978,0,0,0,5.04,5.7657c-.0209.6569-.0133,1.3155.0057,1.9727a1.0444,1.0444,0,0,0,1.0186.9609,1.0063,1.0063,0,0,0,.9767-.9936C7.05,7.386,7.0422,7.0658,7.0422,6.7458ZM9.123,6.7425h.0048c0,.3376-.0112.6757.0026,1.0127a1,1,0,0,0,1.9917.0439c.0256-.692.0319-1.3865.0036-2.0782a1.0016,1.0016,0,0,0-1.0591-.9725,1.0177,1.0177,0,0,0-.9415,1.0348C9.1133,6.1026,9.123,6.4227,9.123,6.7425Zm4.1062-.0217c0,.3368-.0089.6738.002,1.01a.9914.9914,0,0,0,.9431.9639,1.0084,1.0084,0,0,0,1.0266-.8228,20.6415,20.6415,0,0,0-.01-2.2839.993.993,0,0,0-1.0665-.8342.9808.9808,0,0,0-.892.9568C13.2189,6.047,13.23,6.3841,13.2292,6.7208Z" transform="translate(0)"/><path class="cls-1" d="M24.9965,13.442q12.0387.001,24.0774.001c.16,0,.32.01.48.0044.3224-.0117.4488.1534.4417.4589-.0066.2846-.0054.5693-.0054.854q.0006,15.6132.0018,31.2264A3.8185,3.8185,0,0,1,45.8811,50c-5.6588-.0328-11.3178-.0178-16.9768-.0177q-12.4924,0-24.9849.0055A3.7528,3.7528,0,0,1,.0054,46Q.0085,36.7917.01,27.5839q.0013-6.6456.001-13.2912c0-.8507-.0032-.8513.8544-.8513Q12.931,13.4413,24.9965,13.442Zm-2.95,29.5946a.9751.9751,0,0,0,.9381-.8151c.2651-1.047.5293-2.0943.8087-3.1376.5686-2.1225,1.1551-4.24,1.719-6.3641.5556-2.0926,1.091-4.19,1.6378-6.2855.5868-2.2485,1.1807-4.4951,1.7625-6.7449a1.0169,1.0169,0,0,0-.67-1.318.9956.9956,0,0,0-1.2158.827c-.4445,1.6421-.8759,3.2877-1.3128,4.9318q-1.005,3.7812-2.0087,7.5627c-.4468,1.6964-.8739,3.398-1.3193,5.0949-.441,1.68-.9008,3.3553-1.338,5.0363A.9421.9421,0,0,0,22.0467,43.0366ZM17.9236,25.0907a4.0348,4.0348,0,0,0-.7606.3863c-.3769.3221-.72.6842-1.0717,1.035-1.0934,1.09-2.19,2.1775-3.2745,3.2764-.6322.64-.6976,1.0886-.1487,1.6579q2.1957,2.2776,4.4548,4.4937a.947.947,0,0,0,1.5489-.2047c.2686-.3959.2191-.8167-.2345-1.2893-.884-.921-1.7917-1.8193-2.6952-2.7214-1.2505-1.2484-1.11-.8864.02-2.0626.9344-.9722,1.9066-1.9091,2.8107-2.9082a1.0182,1.0182,0,0,0,.148-.9055C18.58,25.5417,18.2052,25.3427,17.9236,25.0907Zm14.4133.108c-.7842.0178-1.2985.5915-1.13,1.1536a2.28,2.28,0,0,0,.5807.8661c.9559.9794,1.9372,1.9341,2.9085,2.8986.59.5863.5894.5863.0106,1.1574-.19.1871-.3753.3783-.5638.5666-.8539.8527-1.7134,1.7-2.56,2.56a1.0561,1.0561,0,0,0-.1476,1.52,1.0385,1.0385,0,0,0,1.59-.1367c.2856-.2913.5806-.5732.8693-.8615q1.6761-1.6741,3.35-3.3507A1.0349,1.0349,0,0,0,37.286,29.9c-.2516-.2748-.5278-.527-.7917-.7906-1.1566-1.1552-2.3053-2.3184-3.4756-3.46A3.5893,3.5893,0,0,0,32.3369,25.1987Z" transform="translate(0)"/><path class="cls-1" d="M24.99,11.4339q-12.1708,0-24.3416.0074c-.4806.0006-.6557-.1421-.648-.6406.04-2.525-.0109-5.0528.0892-7.5749A3.4664,3.4664,0,0,1,3.259.0842C3.7008.0424,4.1461.0174,4.59.0172Q25.3017.01,46.0134,0a3.8135,3.8135,0,0,1,3.9694,3.729c.0146,2.4194.0069,4.839.0172,7.2584.0014.3292-.1534.4431-.4549.4407-.3736-.0029-.7473.0057-1.121.0057Q36.707,11.4344,24.99,11.4339Zm9.4431-5.6883V5.7435q-4.4583,0-8.9164.0014a1.8,1.8,0,0,0-.7381.0471,1.477,1.477,0,0,0-.7184.6157,1.1484,1.1484,0,0,0,.1281.8766c.263.4615.7739.4435,1.24.4438q9.05.0043,18.1.0008a2.3555,2.3555,0,0,0,.7363-.0919.96.96,0,0,0-.1165-1.8615,2.8064,2.8064,0,0,0-.5846-.0288Q38.9979,5.7444,34.4329,5.7456Zm-27.3907,1H7.0385c0-.3376.0175-.6764-.0038-1.0127a.9514.9514,0,0,0-.9781-.9816A.9978.9978,0,0,0,5.04,5.7657c-.0209.6569-.0133,1.3155.0057,1.9727a1.0444,1.0444,0,0,0,1.0186.9609,1.0063,1.0063,0,0,0,.9767-.9936C7.05,7.386,7.0422,7.0658,7.0422,6.7458ZM9.123,6.7425h.0048c0,.3376-.0112.6757.0026,1.0127a1,1,0,0,0,1.9917.0439c.0256-.692.0319-1.3865.0036-2.0782a1.0016,1.0016,0,0,0-1.0591-.9725,1.0177,1.0177,0,0,0-.9415,1.0348C9.1133,6.1026,9.123,6.4227,9.123,6.7425Zm4.1062-.0217c0,.3368-.0089.6738.002,1.01a.9914.9914,0,0,0,.9431.9639,1.0084,1.0084,0,0,0,1.0266-.8228,20.6415,20.6415,0,0,0-.01-2.2839.993.993,0,0,0-1.0665-.8342.9808.9808,0,0,0-.892.9568C13.2189,6.047,13.23,6.3841,13.2292,6.7208Z" transform="translate(0)"/></svg>