<svg id="Layer_1" data-name="Layer 1" xmlns="http://www.w3.org/2000/svg" width="48.3555" height="42.2945" viewBox="0 0 48.3555 42.2945"><defs><style>.cls-1{fill:#b03ce3;}</style></defs><path d="M37.5168,12.4857c.8672-2.4056.9494-2.4673,3.13-2.4669,1.2547,0,2.51-.0272,3.764.0065a4.447,4.447,0,0,1,4.57,4.5956q.0393,10.5183.0013,21.0367a4.454,4.454,0,0,1-4.8078,4.6363c-5.3905.0258-10.7812.0084-16.1717.0089H26.4055v2.8986c.4812,0,.9712,0,1.4612,0,3.95,0,7.9.0078,11.85-.0066,1.0655-.0039,2.0075.1676,2.1484,1.4415.1092.988-.6982,1.5471-2.1655,1.5479q-14.917.0078-29.834.0108c-1.0931.0015-2.07-.2312-2.0737-1.4916-.0035-1.2568.9664-1.5129,2.0628-1.5085,4.412.0176,8.8242.0073,13.3516.0073v-2.9H21.6978q-7.9464,0-15.8929-.002c-3.4226-.005-5.1528-1.73-5.1559-5.1367Q.64,25.133.6482,15.1023c.0024-3.3067,1.763-5.0766,5.0742-5.08q11.7758-.0131,23.5625-.0028c-.37,2.3328-.5254,2.4672-2.7832,2.4671q-10.3164,0-20.6329.001c-2.1311.0012-2.7737.6185-2.7764,2.706q-.0128,9.9611,0,19.9222c.0028,2.0919.6536,2.7256,2.7626,2.7261q18.96.0042,37.92-.0009c2.1179-.0006,2.7691-.6332,2.7717-2.716q.0124-10.0308-.0006-20.0615c-.0029-1.9059-.6913-2.5667-2.6287-2.5753C41.8024,12.4784,39.6875,12.4857,37.5168,12.4857Z" transform="translate(-0.6445 -3.9006)"/><path d="M25.2526,23.7993a12.8812,12.8812,0,0,1,.3612-1.2982q3.5715-8.39,7.1684-16.7686a2.84,2.84,0,0,1,3.007-1.82,2.74,2.74,0,0,1,2.6675,2.2585,3.4742,3.4742,0,0,1-.2979,2.2533c-3.1149,5.2766-6.3108,10.5054-9.4975,15.74-.4644.7629-1.1545,1.3681-2.07.9227A5.5514,5.5514,0,0,1,25.2526,23.7993Z" transform="translate(-0.6445 -3.9006)"/><path d="M20.8677,30.166c1.47-.2739,1.57-1.2661,1.4248-2.489-.2364-1.9937.387-2.88,1.9665-3.4025l3.7179,2.1093a4.2363,4.2363,0,0,1-2.0983,4.73A3.7366,3.7366,0,0,1,20.8677,30.166Z" transform="translate(-0.6445 -3.9006)"/><path class="cls-1" d="M37.5168,12.4857c.8672-2.4056.9494-2.4673,3.13-2.4669,1.2547,0,2.51-.0272,3.764.0065a4.447,4.447,0,0,1,4.57,4.5956q.0393,10.5183.0013,21.0367a4.454,4.454,0,0,1-4.8078,4.6363c-5.3905.0258-10.7812.0084-16.1717.0089H26.4055v2.8986c.4812,0,.9712,0,1.4612,0,3.95,0,7.9.0078,11.85-.0066,1.0655-.0039,2.0075.1676,2.1484,1.4415.1092.988-.6982,1.5471-2.1655,1.5479q-14.917.0078-29.834.0108c-1.0931.0015-2.07-.2312-2.0737-1.4916-.0035-1.2568.9664-1.5129,2.0628-1.5085,4.412.0176,8.8242.0073,13.3516.0073v-2.9H21.6978q-7.9464,0-15.8929-.002c-3.4226-.005-5.1528-1.73-5.1559-5.1367Q.64,25.133.6482,15.1023c.0024-3.3067,1.763-5.0766,5.0742-5.08q11.7758-.0131,23.5625-.0028c-.37,2.3328-.5254,2.4672-2.7832,2.4671q-10.3164,0-20.6329.001c-2.1311.0012-2.7737.6185-2.7764,2.706q-.0128,9.9611,0,19.9222c.0028,2.0919.6536,2.7256,2.7626,2.7261q18.96.0042,37.92-.0009c2.1179-.0006,2.7691-.6332,2.7717-2.716q.0124-10.0308-.0006-20.0615c-.0029-1.9059-.6913-2.5667-2.6287-2.5753C41.8024,12.4784,39.6875,12.4857,37.5168,12.4857Z" transform="translate(-0.6445 -3.9006)"/><path class="cls-1" d="M25.2526,23.7993a12.8812,12.8812,0,0,1,.3612-1.2982q3.5715-8.39,7.1684-16.7686a2.84,2.84,0,0,1,3.007-1.82,2.74,2.74,0,0,1,2.6675,2.2585,3.4742,3.4742,0,0,1-.2979,2.2533c-3.1149,5.2766-6.3108,10.5054-9.4975,15.74-.4644.7629-1.1545,1.3681-2.07.9227A5.5514,5.5514,0,0,1,25.2526,23.7993Z" transform="translate(-0.6445 -3.9006)"/><path class="cls-1" d="M20.8677,30.166c1.47-.2739,1.57-1.2661,1.4248-2.489-.2364-1.9937.387-2.88,1.9665-3.4025l3.7179,2.1093a4.2363,4.2363,0,0,1-2.0983,4.73A3.7366,3.7366,0,0,1,20.8677,30.166Z" transform="translate(-0.6445 -3.9006)"/></svg>