<svg id="Layer_1" data-name="Layer 1" xmlns="http://www.w3.org/2000/svg" width="46.6511" height="32.3802" viewBox="0 0 46.6511 32.3802"><defs><style>.cls-1{fill:#ff810c;}</style></defs><path class="cls-1" d="M48.2975,9.9655c0,1.5078-.0613,2.9935.0215,4.4712a2.11,2.11,0,0,1-1.0943,2.1463c-3.2077,2.0923-6.3551,4.2771-9.52,6.435q-5.8757,4.0063-11.7436,8.0241-4.6647,3.1827-9.3365,6.355c-1.71,1.1655-3.41,2.3468-5.13,3.4961a1.7331,1.7331,0,0,1-.8988.2807c-2.8072.02-5.6145.01-8.4218.0092a.9848.9848,0,0,1-.2916-.0084c-.0786-.0255-.1392-.1064-.2078-.1628.07-.0749.1275-.183.2136-.216a1.0039,1.0039,0,0,1,.3385-.0106c1.2078-.0023,2.4158-.0156,3.6234,0,.4119.0052.5968-.1165.5728-.5588a13.0317,13.0317,0,0,1,.0036-1.7126.643.643,0,0,0-.5725-.7525c-.2522-.0665-.51-.1171-.7568-.1983-.29-.0954-.5715-.2162-.8683-.33a13.6816,13.6816,0,0,0,.6405-1.7265c.2158-.947.2741-1.9317.5143-2.8709.2647-1.0355.6987-2.027.9814-3.0589a4.672,4.672,0,0,0,.14-1.62c-.0889-.9892-.2611-1.9724-.4365-2.9513a2.4249,2.4249,0,0,0-.3608-.8844,3.6,3.6,0,0,1-.6807-2.4136c.1084-1.2148.0069-2.4471.0838-3.6664a30.4352,30.4352,0,0,1,.4249-3.5893,3.2216,3.2216,0,0,1,.7313-1.3936,1.311,1.311,0,0,0,.2922-1.684,1.5709,1.5709,0,0,1,.733-2.4046,2.0545,2.0545,0,0,1,2.4443.7065,1.0151,1.0151,0,0,1,.0485.47c.0022.3586-.002.7174-.015,1.0756a4.6139,4.6139,0,0,1-.0609.5064c-.0042.0282-.0431.0494-.0567.0782-.2273.4816-.2821,1.1042-.9859,1.1972-.0249.0033-.04.0822-.0384.0793a4.0949,4.0949,0,0,1,.7828,2.4459A10.67,10.67,0,0,0,9.6,17.714a8.8188,8.8188,0,0,1-.041,2.9152,2.7359,2.7359,0,0,0,.57,2.06c.7534,1.1366,1.6128,2.2024,2.4011,3.3167a1.2437,1.2437,0,0,1-.1213,1.88c-.7567.8085-1.5637,1.57-2.3108,2.3871a9.7411,9.7411,0,0,0-.78,1.1561.9625.9625,0,0,1-.2775.3291.7016.7016,0,0,0-.33.8792,3.9867,3.9867,0,0,0,.2423,1.0485c.1283.2455.4452.3911.6738.5864.1215.1038.2332.2191.3493.3292a1.393,1.393,0,0,1-.4522.1136,3.9156,3.9156,0,0,1-2.1665-.808.4785.4785,0,0,0-.3377-.0388,10.6571,10.6571,0,0,0-.3482,1.1926,2.66,2.66,0,0,0-.01.6487,1.0764,1.0764,0,0,0,.0591.4191,5.7942,5.7942,0,0,0,.5308.9333,1.0243,1.0243,0,0,0,.5584.431c.9442.1188,1.8957.1868,2.8464.2352.0942.0048.2823-.2429.289-.38.0331-.684.0451-1.3714.0147-2.0554-.0207-.4646.1627-.5928.6005-.584,1.1258.0224,2.2526-.0079,3.3783.017.399.0088.5152-.1409.5069-.5117-.0164-.7341.0123-1.47-.0129-2.2031-.0134-.39.1374-.5172.51-.5132,1.1261.0119,2.2532-.022,3.3782.0138.4751.0151.5887-.1633.5738-.59-.0244-.7011.0086-1.4042-.0179-2.1051-.0149-.3927.1376-.5118.5126-.507,1.24.0155,2.481-.0045,3.7212.0145.4011.0062.5543-.1185.5372-.535-.028-.6842.0069-1.3708-.0053-2.0561-.0056-.3178.1143-.4262.4313-.423,1.224.0125,2.4483-.0056,3.6723.0094.3372.0041.4638-.0992.4533-.4454-.0207-.6849.0138-1.3717-.0126-2.0562-.0147-.3825.1171-.5268.4979-.524,1.1423.0084,2.2852-.02,3.4272,0,.4164.0073.5882-.099.5679-.5458-.0332-.733.0094-1.4692-.0166-2.2028-.0134-.3749.1288-.4789.4812-.4736,1.0443.0157,2.0891.0053,3.1337.006.9686.0007.82.0355.8294-.853.0065-.62.0138-1.2407.001-1.8606-.0078-.3784.154-.5241.5274-.52,1.2564.0146,2.5135-.0051,3.7694.0275.3765.01.4491-.1435.4466-.4543-.0054-.6855.0119-1.3714-.0036-2.0565-.0081-.36.1313-.4876.49-.4833,1.1913.0145,2.3832-.0091,3.5743.0119.4129.0072.5432-.1431.5251-.5413-.0258-.57-.0066-1.1423-.0063-1.7136C47.4315,9.8445,47.4316,9.8445,48.2975,9.9655ZM10.3925,26.9491l-1.1377-.8535-.1686.03-.1725,2.3249.1227.0212Z" transform="translate(-1.6745 -8.8099)"/></svg>