<svg id="Layer_1" data-name="Layer 1" xmlns="http://www.w3.org/2000/svg" width="49.425" height="49.738" viewBox="0 0 49.425 49.738"><defs><style>.cls-1{fill:#b03ce3;}</style></defs><path class="cls-1" d="M30.071,27.101v-.077c-.016.026-.033.052-.05.077Z" transform="translate(-3.494 -4.667)"/><path class="cls-1" d="M49.265,4.667H7.145A3.6086,3.6086,0,0,0,3.494,8.23V50.843a3.6084,3.6084,0,0,0,3.651,3.562h42.12a3.61,3.61,0,0,0,3.654-3.562V8.23A3.6093,3.6093,0,0,0,49.265,4.667ZM18.475,46.304H11.01V23.845h7.465ZM14.743,20.777h-.05a3.8906,3.8906,0,1,1,.099-7.76,3.8922,3.8922,0,1,1-.049,7.76ZM45.394,46.304H37.929V34.286c0-3.018-1.08-5.078-3.781-5.078a4.0886,4.0886,0,0,0-3.831,2.731,5.1114,5.1114,0,0,0-.245,1.821V46.303H22.607s.098-20.354,0-22.459h7.465v3.179a7.4122,7.4122,0,0,1,6.729-3.709c4.911,0,8.594,3.211,8.594,10.11v12.88Z" transform="translate(-3.494 -4.667)"/></svg>