<?xml version="1.0" encoding="utf-8"?>
<!-- Generator: Adobe Illustrator 25.2.0, SVG Export Plug-In . SVG Version: 6.00 Build 0)  -->
<svg version="1.1" id="Layer_1" xmlns="http://www.w3.org/2000/svg" xmlns:xlink="http://www.w3.org/1999/xlink" x="0px" y="0px"
	 viewBox="0 0 1000 1000" style="enable-background:new 0 0 1000 1000;" xml:space="preserve">
<style type="text/css">
	.st0{fill:#FFFFFF;}
</style>
<g>
	<path class="st0" d="M439.6,12.1c43.5,0,87,0,130.6,0c3.6,1.1,7,2.7,10.7,3.3C777.2,45.5,938.5,195.8,981.3,389
		c5.4,24.3,8.8,48.9,13.2,73.4c0,23.9,0,47.9,0,71.8c-2.1,12.2-4.3,24.4-6.1,36.7c-39.1,262.2-281.8,446.4-543.9,412.8
		C181.6,950.1-5.5,717.2,18.3,453.3C36.7,248.1,183,76.2,382.8,25C401.6,20.2,420.7,16.4,439.6,12.1z M852.8,792.4
		c94.2-98.8,154-291.5,67.6-488.5C848.9,140.9,665.1,28.8,477.2,41.7C276.9,55.6,114.9,186.1,62.1,383.2
		C16.7,552.7,82.2,723,167.7,803.2c1.3-7.3,2.7-14,3.5-20.8c5.1-42.3,23.6-75.6,64.6-92.1c34.6-13.8,69.9-26.1,105.2-38.2
		c16.6-5.7,34-9.3,51.2-13.9c8.4,71.8,55.9,105.7,106.1,111.4c26.4,3,50.6-4.1,72.9-18.1c34.1-21.5,49.6-54.6,55.5-93.5
		c13.5,4,25.2,8.1,37.2,10.9c46.6,11,92,25.6,133.4,49.9c13.3,7.8,25.9,20.3,33.3,33.7C840.8,751,845.8,772.5,852.8,792.4z"/>
	<path class="st0" d="M349,372.5c-1-12.4-1.7-23.7-2.9-35c-4.1-39-2.4-78,18.3-112c29.1-47.9,75.7-68.6,130.1-71.9
		c53.5-3.3,102,8.9,141.5,48.7c25.8,26,36.7,57.4,38.2,92.3c1.1,25.3-2,50.8-3.3,77.1c23.4,16.7,27.6,47.6,8.8,78.2
		c-21.2,34.5-41.8,69.5-64.6,102.9c-38.5,56.7-126.5,82.9-186.7,24.2c-23.2-22.6-39.9-52.1-58.5-79.1
		c-11.3-16.4-22.2-33.4-30.3-51.4c-6.1-13.4-8.8-28.7-10.5-43.4C327.4,388.8,331.6,375.8,349,372.5z M641.9,390.7
		c0.7-4.6,1.4-10.4,2.5-16.2c9.9-51.9,3.2-68.5-43.4-93.1c-15.3-8.1-33.8-10.4-50.6-15.3c14.9,28.1,28.4,53.4,41.8,78.7
		c-1.6,1.1-3.3,2.3-4.9,3.4c-26.2-25.2-54.1-47.2-92.5-53.3c11.3,30.2,11.9,39.3,4.3,51.8c-42.3-39.1-58.9-49.2-93.4-59
		c-10.5-3-17.3-0.4-23.7,8.2c-14.1,18.8-11.8,39.8-9.9,61c0.9,9.9,1.6,19.7,2.4,30.3c-19.2-4.7-25.8,0.1-26.1,17
		c-0.1,6.4,0.2,13.5,2.9,19c6.7,14,14.9,27.3,22.4,40.9c14.1,25.6,27.3,51.7,42.5,76.6c36.1,59.2,116.7,59.2,156.7,31
		c33.5-23.7,49.2-59.7,66-95.1c4.6-9.6,12.3-17.8,16.6-27.5c6.4-14.6,12.2-29.7,15.5-45.3c1.2-5.5-4.3-15-9.5-18.4
		C657.9,383.1,649.5,388.3,641.9,390.7z"/>
</g>
</svg>
