<svg id="Layer_1" data-name="Layer 1" xmlns="http://www.w3.org/2000/svg" width="100" height="100" viewBox="0 0 100 100"><defs><style>.cls-1{fill:#fff;}.cls-2{fill:#b03ce3;}</style></defs><path class="cls-1" d="M50,0a50,50,0,1,0,50,50A50,50,0,0,0,50,0Zm0,88.889A38.889,38.889,0,1,1,88.889,50,38.889,38.889,0,0,1,50,88.889Z" transform="translate(0 0)"/><path class="cls-2" d="M49.05,53.1679l-.1774.1836-1.09,1.0835-2.8512,2.851v2.2176h.0443l-.0443.0443V71.2246l1.9007-1.9007v-.0886l.0443.0443,7.8755-7.8753,1.09-1.0835.8111-.8172.3167-.3169L50,52.2174Zm5.436,5.7971-.545.5386-7.1086,7.1086v-8.965l2.0845-2.0781L50,54.4793l3.1679,3.1679Z" transform="translate(0 0)"/><path class="cls-2" d="M76.8825,27.825a.9821.9821,0,0,1-.1012-.1268c-.3486-.4118-.6971-.8111-1.0582-1.2038-.3548-.3866-.716-.7667-1.0834-1.1341-.3422-.3422-.6843-.6717-1.0391-.9884-.4244-.3991-.8553-.7792-1.2988-1.1532l-.1268.1268-4.2512,4.2576-.1267.12-1.9578,1.9576-2.395,2.4014-.1646.1582-3.7761,3.7761-.5384.545-2.4014-2.4012-2.0845-2.0845-1.3114-1.3115L40.4964,18.0933V36.0169L27.6982,23.2187c-.4118.3486-.8109.6971-1.2037,1.0582-.3865.3548-.7666.7159-1.1342,1.0834-.7475.7475-1.4571,1.5268-2.1416,2.3379a.9821.9821,0,0,1-.1012.1268c-.2915.3548-.5828.7158-.8616,1.0833-.26.3484-.52.7032-.7667,1.058-.1838.2662-.3675.5322-.5448.7984-.4879.7286-.95,1.4825-1.3749,2.2492-.2155.38-.4182.76-.6146,1.1468a34.8359,34.8359,0,0,0-2.11,5.0875c-.1331.4119-.26.83-.38,1.2482q-.4845,1.7295-.7982,3.5163c-.152.8742-.2724,1.7612-.3548,2.661a1.2412,1.2412,0,0,0-.0127.1584c-.095,1.0391-.1457,2.0971-.1457,3.1679s.0507,2.1288.1457,3.1679a1.2427,1.2427,0,0,0,.0127.1584c.0824.9.2028,1.7866.3548,2.661q.3135,1.7865.7982,3.5163c.12.4181.2471.8363.38,1.248a34.8291,34.8291,0,0,0,2.11,5.0877c.1964.3865.3991.7665.6146,1.1468a33.7322,33.7322,0,0,0,1.92,3.0474c.5133.7349,1.058,1.4509,1.6283,2.1415a.9621.9621,0,0,1,.1012.1268c.374.4434.7541.8742,1.1532,1.2988.3169.3548.6464.6969.9884,1.0391.3676.3674.7477.7286,1.1342,1.0834.3928.3611.7919.71,1.2037,1.058l.1268-.1267,4.2576-4.2513.12-.1267a.9379.9379,0,0,1-.12-.1014q-.5607-.4468-1.1024-.9314l-.0317.0253L29.84,70.16c-.3356-.3358-.6651-.6843-.9883-1.0391-.3548-.3927-.6969-.7918-1.0263-1.2037a.9263.9263,0,0,1-.1014-.1205c-.5005-.6272-.982-1.2861-1.432-1.9576a28.41,28.41,0,0,1-2.021-3.5544,25.4632,25.4632,0,0,1-1.1531-2.7813,27.4331,27.4331,0,0,1-1.0835-3.9409c-.1583-.7856-.2788-1.5839-.3674-2.3948-.0064-.0507-.0127-.1078-.0189-.1585a28.6505,28.6505,0,0,1,0-6.019c.0062-.0507.0125-.1076.0189-.1583.0886-.8109.2091-1.6093.3674-2.395a27.43,27.43,0,0,1,1.0835-3.9407,25.4664,25.4664,0,0,1,1.1531-2.7815c.3865-.8046.8046-1.5966,1.2671-2.3567.2409-.4057.4943-.8048.7539-1.1975.1585-.2409.3295-.4815.5007-.716.2977-.4245.6082-.8363.9313-1.2418l.1014.1014L40.4964,44.9757v36.931l17.3789-17.379,1.09-1.0834.5384-.5448L62.9,59.5036l.5448-.5386-3.9407-3.9407-.5384-.5386-1.318-1.3178L54.4793,50l3.1679-3.1679,1.318-1.3114.5384-.545.8173-.8109,3.1234-3.1236.5386-.5448L67.759,36.72l.1648-.1584,2.3948-2.4012,1.8564-1.8564.1014-.1014c.5007.6272.9822,1.2861,1.432,1.9578a28.4075,28.4075,0,0,1,2.021,3.5542c.2978.6146.5765,1.2482.8236,1.8881.1141.2978.2283.5955.3295.8934.228.64.4372,1.2987.6209,1.9576.1774.6527.3295,1.3179.4626,1.9831.1584.7857.2788,1.5841.3674,2.395.0064.0507.0127.1076.0189.1583a28.6505,28.6505,0,0,1,0,6.019c-.0062.0507-.0125.1078-.0189.1585-.0886.8109-.209,1.6092-.3674,2.3948-.1331.6653-.2852,1.3242-.4689,1.9767-.1774.6653-.38,1.3179-.6146,1.9642-.1012.2977-.2154.5955-.3295.8932-.2471.64-.5258,1.2735-.8236,1.8881a28.41,28.41,0,0,1-2.021,3.5544c-.45.6715-.9313,1.33-1.432,1.9576a.9185.9185,0,0,1-.1014.1205c-.3041.38-.6146.7476-.9313,1.1087l.0254.0254L70.16,70.16a27.0209,27.0209,0,0,1-2.243,2.0148.9379.9379,0,0,1-.12.1014l.1267.1267,4.2512,4.2513.1268.1267c.8109-.6843,1.59-1.3939,2.3379-2.1414.3674-.3676.7286-.7477,1.0834-1.1342.3611-.3928.71-.7919,1.0582-1.2037a.9621.9621,0,0,1,.1012-.1268c.57-.6906,1.1152-1.4066,1.6283-2.1415a33.7322,33.7322,0,0,0,1.92-3.0474c.2155-.38.4182-.76.6146-1.1468.1077-.2091.2155-.4182.3168-.6336.4181-.8616.8046-1.7486,1.1531-2.6484.228-.5954.4435-1.1973.64-1.8057.1331-.4117.26-.83.38-1.248q.4845-1.73.7982-3.5163c.1522-.8744.2725-1.7614.3548-2.661a1.2427,1.2427,0,0,0,.0127-.1584c.095-1.0391.1457-2.0971.1457-3.1679s-.0507-2.1288-.1457-3.1679a1.2412,1.2412,0,0,0-.0127-.1584c-.0823-.9-.2026-1.7868-.3548-2.661q-.3135-1.7867-.7982-3.5163c-.12-.4182-.2471-.8363-.38-1.2482-.1964-.6082-.4119-1.21-.64-1.8057-.3485-.9-.735-1.7866-1.1531-2.6482-.1013-.2155-.2091-.4247-.3168-.6336-.1964-.3865-.3991-.7667-.6146-1.1468a33.7213,33.7213,0,0,0-1.92-3.0476C77.9977,29.2314,77.4528,28.5154,76.8825,27.825ZM55.3855,46.8321l-2.0339,2.04-.1837.1774-.95.95,8.87,8.87L58.87,61.0874l-1.1278,1.1343-1.09,1.0833L48.7772,71.18l-.8932.8934-.1014.1013L44.2978,75.66,42.46,77.4971l-.0633.0632V53.1679h-.0443l.0443-.0445v-6.247l-.0443-.0443h.0443V22.44L57.7422,37.7847l1.223,1.2227.5384.5386,1.584,1.584Z" transform="translate(0 0)"/><path class="cls-2" d="M46.8764,30.72l-.0443.0444v-.0888l-1.9007-1.9007V40.4519l.0443.0445h-.0443v2.2174L49.05,46.8321l1.0453,1.0453L51.14,46.8321l.0888-.0824,1.9387-1.945,3.8964-3.8966-.4117-.4117Zm6.2915,11.6323L50,45.5207l-3.1679-3.1681v-8.965l.7729.7731L50,36.5555l3.1679,3.1679.7728.773.545.5448Z" transform="translate(0 0)"/><path class="cls-2" d="M63.2087,4.9742a1.6843,1.6843,0,0,0-.5611-.8152,2.75,2.75,0,0,0-1.1424-.5323L58.808,2.9843,57.4216,8.806l1.4984.3566.5379-2.2589.3915.0927.6451,2.5415,1.6169.385-.7623-2.6215.3-.0238a1.7337,1.7337,0,0,0,1.0362-.4033,1.6718,1.6718,0,0,0,.54-.9089A1.883,1.883,0,0,0,63.2087,4.9742Zm-1.5382.7525a.7688.7688,0,0,1-.3589.529.7361.7361,0,0,1-.3583.0856,1.1815,1.1815,0,0,1-.274-.035l-1.0212-.2429.3677-1.5441,1.0209.2433a.8355.8355,0,0,1,.5385.3494A.7706.7706,0,0,1,61.6705,5.7267Z" transform="translate(0 0)"/><polygon class="cls-2" points="53.533 4.852 51.706 4.769 51.769 3.384 54.309 3.5 54.36 2.381 50.282 2.196 50.009 8.174 51.548 8.244 51.659 5.805 53.486 5.888 53.533 4.852"/><path class="cls-2" d="M61.0756,5.8263a.3373.3373,0,0,0,.1184-.213.2859.2859,0,0,0-.0219-.2381.3728.3728,0,0,0-.2387-.1362l-.5446-.13-.1407.591.5445.13A.421.421,0,0,0,61.0756,5.8263Z" transform="translate(0 0)"/><polygon class="cls-2" points="67.269 10.704 67.844 9.422 69.679 10.246 70.104 9.299 68.268 8.476 68.794 7.303 70.88 8.239 71.342 7.209 67.851 5.643 65.402 11.103 68.893 12.669 69.355 11.639 67.269 10.704"/><path class="cls-2" d="M75.7339,14.4232a1.1493,1.1493,0,0,0,.7793-.54,1.15,1.15,0,0,0,.25-.9145,1.288,1.288,0,0,0-.5734-.7844l-.1957-.1385L74.6076,14.005l.1957.1385A1.2876,1.2876,0,0,0,75.7339,14.4232Z" transform="translate(0 0)"/><path class="cls-2" d="M78.5,12.1143a3.4744,3.4744,0,0,0-1.1362-1.2724L75.3612,9.4252l-3.4566,4.8854,2.0023,1.4164a3.37,3.37,0,0,0,1.5823.6368,2.735,2.735,0,0,0,1.5-.25,3.14,3.14,0,0,0,1.2035-1.0419,3.1064,3.1064,0,0,0,.5816-1.48A2.6608,2.6608,0,0,0,78.5,12.1143Zm-1.5866,2.0523a1.63,1.63,0,0,1-1.1136.742,1.5346,1.5346,0,0,1-.2038.0137,1.8567,1.8567,0,0,1-1.0755-.3789l-.5953-.4213,1.952-2.7589.5953.4216a1.7741,1.7741,0,0,1,.77,1.0846A1.6317,1.6317,0,0,1,76.9131,14.1666Z" transform="translate(0 0)"/><path class="cls-2" d="M19.94,84.1179l-.6887-.6153-.6091.6822.6888.615a.65.65,0,0,0,.3736.1927.4118.4118,0,0,0,.3272-.1676Q20.3427,84.4772,19.94,84.1179ZM21.6123,82.65a.6119.6119,0,0,0-.2276-.3563l-.5865-.5238-.6091.6822.5869.5235a.6317.6317,0,0,0,.3765.1895.4152.4152,0,0,0,.3243-.1643A.44.44,0,0,0,21.6123,82.65Zm0,0a.6119.6119,0,0,0-.2276-.3563l-.5865-.5238-.6091.6822.5869.5235a.6317.6317,0,0,0,.3765.1895.4152.4152,0,0,0,.3243-.1643A.44.44,0,0,0,21.6123,82.65ZM19.94,84.1179l-.6887-.6153-.6091.6822.6888.615a.65.65,0,0,0,.3736.1927.4118.4118,0,0,0,.3272-.1676Q20.3427,84.4772,19.94,84.1179Zm0,0-.6887-.6153-.6091.6822.6888.615a.65.65,0,0,0,.3736.1927.4118.4118,0,0,0,.3272-.1676Q20.3427,84.4772,19.94,84.1179ZM21.6123,82.65a.6119.6119,0,0,0-.2276-.3563l-.5865-.5238-.6091.6822.5869.5235a.6317.6317,0,0,0,.3765.1895.4152.4152,0,0,0,.3243-.1643A.44.44,0,0,0,21.6123,82.65Zm5.3214,6.59,1.0163.581.3861-1.8543Zm10.4644,2.292a.6012.6012,0,0,0-.3694-.2717l-.7661-.245L35.9282,92.06l.7664.2453a.6362.6362,0,0,0,.4582.0075.6382.6382,0,0,0,.2453-.7812Zm0,0a.6012.6012,0,0,0-.3694-.2717l-.7661-.245L35.9282,92.06l.7664.2453a.6362.6362,0,0,0,.4582.0075.6382.6382,0,0,0,.2453-.7812ZM26.9337,89.24l1.0163.581.3861-1.8543Zm-5.3214-6.59a.6119.6119,0,0,0-.2276-.3563l-.5865-.5238-.6091.6822.5869.5235a.6317.6317,0,0,0,.3765.1895.4152.4152,0,0,0,.3243-.1643A.44.44,0,0,0,21.6123,82.65ZM19.94,84.1179l-.6887-.6153-.6091.6822.6888.615a.65.65,0,0,0,.3736.1927.4118.4118,0,0,0,.3272-.1676Q20.3427,84.4772,19.94,84.1179Zm0,0-.6887-.6153-.6091.6822.6888.615a.65.65,0,0,0,.3736.1927.4118.4118,0,0,0,.3272-.1676Q20.3427,84.4772,19.94,84.1179ZM21.6123,82.65a.6119.6119,0,0,0-.2276-.3563l-.5865-.5238-.6091.6822.5869.5235a.6317.6317,0,0,0,.3765.1895.4152.4152,0,0,0,.3243-.1643A.44.44,0,0,0,21.6123,82.65Zm5.3214,6.59,1.0163.581.3861-1.8543Zm10.4644,2.292a.6012.6012,0,0,0-.3694-.2717l-.7661-.245L35.9282,92.06l.7664.2453a.6362.6362,0,0,0,.4582.0075.6382.6382,0,0,0,.2453-.7812Zm8.176,1.9516-.7622,1.7342,1.1646.1169Zm9.8433-.1975a.4406.4406,0,0,0-.17-.3358.6111.6111,0,0,0-.4167-.07l-.7818.0846.098.9092.7818-.0846a.6294.6294,0,0,0,.3929-.1528A.4137.4137,0,0,0,55.4174,93.2858Zm.3853,2.2945q-.05-.4638-.5862-.4059l-.9183.0993.0979.9092.9184-.0993a.6478.6478,0,0,0,.3932-.1483A.4116.4116,0,0,0,55.8027,95.58Zm0,0q-.05-.4638-.5862-.4059l-.9183.0993.0979.9092.9184-.0993a.6478.6478,0,0,0,.3932-.1483A.4116.4116,0,0,0,55.8027,95.58Zm-.3853-2.2945a.4406.4406,0,0,0-.17-.3358.6111.6111,0,0,0-.4167-.07l-.7818.0846.098.9092.7818-.0846a.6294.6294,0,0,0,.3929-.1528A.4137.4137,0,0,0,55.4174,93.2858Zm-9.8433.1975-.7622,1.7342,1.1646.1169Zm-8.176-1.9516a.6012.6012,0,0,0-.3694-.2717l-.7661-.245L35.9282,92.06l.7664.2453a.6362.6362,0,0,0,.4582.0075.6382.6382,0,0,0,.2453-.7812ZM26.9337,89.24l1.0163.581.3861-1.8543Zm-5.3214-6.59a.6119.6119,0,0,0-.2276-.3563l-.5865-.5238-.6091.6822.5869.5235a.6317.6317,0,0,0,.3765.1895.4152.4152,0,0,0,.3243-.1643A.44.44,0,0,0,21.6123,82.65ZM19.94,84.1179l-.6887-.6153-.6091.6822.6888.615a.65.65,0,0,0,.3736.1927.4118.4118,0,0,0,.3272-.1676Q20.3427,84.4772,19.94,84.1179Zm0,0-.6887-.6153-.6091.6822.6888.615a.65.65,0,0,0,.3736.1927.4118.4118,0,0,0,.3272-.1676Q20.3427,84.4772,19.94,84.1179ZM21.6123,82.65a.6119.6119,0,0,0-.2276-.3563l-.5865-.5238-.6091.6822.5869.5235a.6317.6317,0,0,0,.3765.1895.4152.4152,0,0,0,.3243-.1643A.44.44,0,0,0,21.6123,82.65Zm5.3214,6.59,1.0163.581.3861-1.8543Zm10.4644,2.292a.6012.6012,0,0,0-.3694-.2717l-.7661-.245L35.9282,92.06l.7664.2453a.6362.6362,0,0,0,.4582.0075.6382.6382,0,0,0,.2453-.7812Zm8.176,1.9516-.7622,1.7342,1.1646.1169Zm9.8433-.1975a.4406.4406,0,0,0-.17-.3358.6111.6111,0,0,0-.4167-.07l-.7818.0846.098.9092.7818-.0846a.6294.6294,0,0,0,.3929-.1528A.4137.4137,0,0,0,55.4174,93.2858Zm.3853,2.2945q-.05-.4638-.5862-.4059l-.9183.0993.0979.9092.9184-.0993a.6478.6478,0,0,0,.3932-.1483A.4116.4116,0,0,0,55.8027,95.58ZM63.696,91.516l.0084,1.8942,1.1117-.3668Zm9.0447-4.0807a.5362.5362,0,0,0-.3331-.2714.6.6,0,0,0-.4491.0925l-.6949.4056.5532.9477.695-.4056a.6366.6366,0,0,0,.3122-.3357A.5371.5371,0,0,0,72.7407,87.4353Zm0,0a.5362.5362,0,0,0-.3331-.2714.6.6,0,0,0-.4491.0925l-.6949.4056.5532.9477.695-.4056a.6366.6366,0,0,0,.3122-.3357A.5371.5371,0,0,0,72.7407,87.4353ZM63.696,91.516l.0084,1.8942,1.1117-.3668ZM55.8027,95.58q-.05-.4638-.5862-.4059l-.9183.0993.0979.9092.9184-.0993a.6478.6478,0,0,0,.3932-.1483A.4116.4116,0,0,0,55.8027,95.58Zm-.481-1.9441a.4137.4137,0,0,0,.0957-.35.4406.4406,0,0,0-.17-.3358.6111.6111,0,0,0-.4167-.07l-.7818.0846.098.9092.7818-.0846A.6294.6294,0,0,0,55.3217,93.6362Zm-9.7476-.1529-.7622,1.7342,1.1646.1169Zm-8.176-1.9516a.6012.6012,0,0,0-.3694-.2717l-.7661-.245L35.9282,92.06l.7664.2453a.6362.6362,0,0,0,.4582.0075.6382.6382,0,0,0,.2453-.7812ZM26.9337,89.24l1.0163.581.3861-1.8543Zm-5.3214-6.59a.6119.6119,0,0,0-.2276-.3563l-.5865-.5238-.6091.6822.5869.5235a.6317.6317,0,0,0,.3765.1895.4152.4152,0,0,0,.3243-.1643A.44.44,0,0,0,21.6123,82.65ZM19.94,84.1179l-.6887-.6153-.6091.6822.6888.615a.65.65,0,0,0,.3736.1927.4118.4118,0,0,0,.3272-.1676Q20.3427,84.4772,19.94,84.1179ZM50,0a50,50,0,1,0,50,50A50,50,0,0,0,50,0ZM77.6463,10.4422a3.95,3.95,0,0,1,1.292,1.4543h0a3.1437,3.1437,0,0,1,.323,1.7459,3.8165,3.8165,0,0,1-2.06,2.9128,3.1857,3.1857,0,0,1-1.3912.3161,3.4473,3.4473,0,0,1-.3737-.0205,3.8531,3.8531,0,0,1-1.8128-.7238l-2.402-1.6995,4.0225-5.6848ZM67.6045,4.9954,71.99,6.9624,71.1267,8.886,69.0408,7.95l-.1251.2789,1.8358.8233-.8256,1.8406L68.09,10.07l-.1737.3873,2.0862.9354L69.14,13.3165l-4.3851-1.9671ZM58.4451,2.3945l3.1738.7557a3.2342,3.2342,0,0,1,1.3435.6333,2.1879,2.1879,0,0,1,.7153,1.0493,2.37,2.37,0,0,1,.0241,1.2462,2.1727,2.1727,0,0,1-.6962,1.1653,2.1427,2.1427,0,0,1-1.0229.482l.8341,2.8681-2.7244-.6489-.4412-1.7388-.3681,1.5461-2.4516-.5836Zm-8.6306-.7106,5.0568.23-.0957,2.097-2.5395-.1153-.0183.4056,1.8269.0833L53.953,6.4l-1.8269-.0832L52.015,8.7554l-2.5173-.1146Zm-8.1084.7606L43.87,4.873l-.4131-2.6966,2.4908-.3815L47.002,8.6786l-2.3789.3645L42.4647,6.6577l.4066,2.6535-2.4908.3818L39.3256,2.8093ZM33.6646,4.5591l4.9023,5.56-2.4836.9725-.6548-.7946L33.75,10.954l.0588,1.0277-2.4758.9693-.1669-7.4134Zm-12.3328,6.6,2.9837,2.0761L23.357,9.74l2.3716-1.6616,3.9958,5.7038-2.0562,1.4405L26.6068,13.708l.5937,1.8423-1.7191,1.2044-1.5291-1.1871,1.0614,1.5147L22.95,18.5281,18.954,12.8246Zm.1561,73.2988a1.5422,1.5422,0,0,1,.3041,1.0255,1.5763,1.5763,0,0,1-.4125.9494,1.6011,1.6011,0,0,1-1.2933.6045,2.4828,2.4828,0,0,1-1.5114-.7306L16.0441,84.047l4.3116-4.8295,2.4624,2.1986a2.5191,2.5191,0,0,1,.8736,1.3559,1.4757,1.4757,0,0,1-.4115,1.3119,1.5267,1.5267,0,0,1-.8583.5151A1.4087,1.4087,0,0,1,21.4879,84.4575ZM29.27,93.4618,27.4128,92.4l.2077-1.0081L25.7472,90.32l-.7635.6907-1.85-1.0578,5.2694-4.4448,2.0324,1.162Zm10.1473-.9958a1.9248,1.9248,0,0,1-.695.9873,1.9875,1.9875,0,0,1-1.2087.372L38.1,96.6146l-2.1251-.68-.4507-2.583-.0088-.0026-.7077,2.2123-1.9334-.6186,1.9726-6.1665,2.8742.92a2.98,2.98,0,0,1,1.1953.6751,1.9427,1.9427,0,0,1,.5657.9778A2.1217,2.1217,0,0,1,39.4177,92.466Zm7.1179,5.4426-.22-1.0053-2.1473-.2158-.4164.9415-2.12-.2129,3.0036-6.2051,2.3292.2341,1.7005,6.6774Zm10.9451-.8861a2.4838,2.4838,0,0,1-1.5552.6323l-3.3729.3641-.6947-6.4369,3.2819-.3544a2.52,2.52,0,0,1,1.5918.2606,1.4766,1.4766,0,0,1,.6982,1.1849,1.5264,1.5264,0,0,1-.193.9817,1.4094,1.4094,0,0,1-.7309.5986,1.5431,1.5431,0,0,1,.9647.4615,1.5755,1.5755,0,0,1,.4285.9425A1.6022,1.6022,0,0,1,57.4807,97.0225Zm8.8929-1.8543-.61-.8292-2.0493.676.0023,1.0294-2.0232.6676.2211-6.89,2.2234-.7332,4.2684,5.4092Zm8.354-4.001L72.5065,89.774l-.0078.0046L73.67,91.7848,71.9161,92.808l-3.2633-5.5918,2.6065-1.5209a2.977,2.977,0,0,1,1.3014-.4366,1.9362,1.9362,0,0,1,1.1052.2338,2.1156,2.1156,0,0,1,.7871.7952,1.9249,1.9249,0,0,1,.2687,1.1774,1.9847,1.9847,0,0,1-.5323,1.1469l2.4654,1.4305Zm8.536-6.5176-.8942-.51L80.77,85.5888l.42.94L79.6114,87.96l-2.5925-6.388L78.7534,80l6.0957,3.2132ZM50,88.889A38.889,38.889,0,1,1,88.889,50,38.889,38.889,0,0,1,50,88.889ZM80.9781,83.34l-1.6434-.9418.776,1.7276Zm-8.57,3.8243a.6.6,0,0,0-.4491.0925l-.6949.4056.5532.9477.695-.4056a.6366.6366,0,0,0,.3122-.3357.6374.6374,0,0,0-.4164-.7045ZM63.7044,93.41l1.1117-.3668-1.12-1.5274Zm-8.4879,1.7642-.9183.0993.0979.9092.9184-.0993a.6478.6478,0,0,0,.3932-.1483.4116.4116,0,0,0,.095-.355Q55.7527,95.1165,55.2165,95.1744Zm.1052-1.5382a.4137.4137,0,0,0,.0957-.35.4406.4406,0,0,0-.17-.3358.6111.6111,0,0,0-.4167-.07l-.7818.0846.098.9092.7818-.0846A.6294.6294,0,0,0,55.3217,93.6362Zm-10.51,1.5813,1.1646.1169-.4024-1.8511ZM37.0287,91.26l-.7661-.245L35.9282,92.06l.7664.2453a.6362.6362,0,0,0,.4582.0075.6382.6382,0,0,0,.2453-.7812A.6012.6012,0,0,0,37.0287,91.26ZM27.95,89.8207l.3861-1.8543L26.9337,89.24Zm-6.5653-7.5268-.5865-.5238-.6091.6822.5869.5235a.6317.6317,0,0,0,.3765.1895.4152.4152,0,0,0,.3243-.1643.44.44,0,0,0,.1355-.3508A.6119.6119,0,0,0,21.3847,82.2939ZM19.94,84.1179l-.6887-.6153-.6091.6822.6888.615a.65.65,0,0,0,.3736.1927.4118.4118,0,0,0,.3272-.1676Q20.3427,84.4772,19.94,84.1179Zm0,0-.6887-.6153-.6091.6822.6888.615a.65.65,0,0,0,.3736.1927.4118.4118,0,0,0,.3272-.1676Q20.3427,84.4772,19.94,84.1179ZM21.6123,82.65a.6119.6119,0,0,0-.2276-.3563l-.5865-.5238-.6091.6822.5869.5235a.6317.6317,0,0,0,.3765.1895.4152.4152,0,0,0,.3243-.1643A.44.44,0,0,0,21.6123,82.65Zm5.3214,6.59,1.0163.581.3861-1.8543Zm10.4644,2.292a.6012.6012,0,0,0-.3694-.2717l-.7661-.245L35.9282,92.06l.7664.2453a.6362.6362,0,0,0,.4582.0075.6382.6382,0,0,0,.2453-.7812Zm8.176,1.9516-.7622,1.7342,1.1646.1169Zm9.8433-.1975a.4406.4406,0,0,0-.17-.3358.6111.6111,0,0,0-.4167-.07l-.7818.0846.098.9092.7818-.0846a.6294.6294,0,0,0,.3929-.1528A.4137.4137,0,0,0,55.4174,93.2858Zm.3853,2.2945q-.05-.4638-.5862-.4059l-.9183.0993.0979.9092.9184-.0993a.6478.6478,0,0,0,.3932-.1483A.4116.4116,0,0,0,55.8027,95.58ZM63.696,91.516l.0084,1.8942,1.1117-.3668Zm0,0,.0084,1.8942,1.1117-.3668ZM55.8027,95.58q-.05-.4638-.5862-.4059l-.9183.0993.0979.9092.9184-.0993a.6478.6478,0,0,0,.3932-.1483A.4116.4116,0,0,0,55.8027,95.58Zm-.3853-2.2945a.4406.4406,0,0,0-.17-.3358.6111.6111,0,0,0-.4167-.07l-.7818.0846.098.9092.7818-.0846a.6294.6294,0,0,0,.3929-.1528A.4137.4137,0,0,0,55.4174,93.2858Zm-9.8433.1975-.7622,1.7342,1.1646.1169Zm-8.176-1.9516a.6012.6012,0,0,0-.3694-.2717l-.7661-.245L35.9282,92.06l.7664.2453a.6362.6362,0,0,0,.4582.0075.6382.6382,0,0,0,.2453-.7812ZM26.9337,89.24l1.0163.581.3861-1.8543Zm-5.3214-6.59a.6119.6119,0,0,0-.2276-.3563l-.5865-.5238-.6091.6822.5869.5235a.6317.6317,0,0,0,.3765.1895.4152.4152,0,0,0,.3243-.1643A.44.44,0,0,0,21.6123,82.65ZM19.94,84.1179l-.6887-.6153-.6091.6822.6888.615a.65.65,0,0,0,.3736.1927.4118.4118,0,0,0,.3272-.1676Q20.3427,84.4772,19.94,84.1179Zm0,0-.6887-.6153-.6091.6822.6888.615a.65.65,0,0,0,.3736.1927.4118.4118,0,0,0,.3272-.1676Q20.3427,84.4772,19.94,84.1179ZM21.6123,82.65a.6119.6119,0,0,0-.2276-.3563l-.5865-.5238-.6091.6822.5869.5235a.6317.6317,0,0,0,.3765.1895.4152.4152,0,0,0,.3243-.1643A.44.44,0,0,0,21.6123,82.65Zm5.3214,6.59,1.0163.581.3861-1.8543Zm10.4644,2.292a.6012.6012,0,0,0-.3694-.2717l-.7661-.245L35.9282,92.06l.7664.2453a.6362.6362,0,0,0,.4582.0075.6382.6382,0,0,0,.2453-.7812Zm8.176,1.9516-.7622,1.7342,1.1646.1169Zm0,0-.7622,1.7342,1.1646.1169Zm-8.176-1.9516a.6012.6012,0,0,0-.3694-.2717l-.7661-.245L35.9282,92.06l.7664.2453a.6362.6362,0,0,0,.4582.0075.6382.6382,0,0,0,.2453-.7812ZM26.9337,89.24l1.0163.581.3861-1.8543Zm-5.3214-6.59a.6119.6119,0,0,0-.2276-.3563l-.5865-.5238-.6091.6822.5869.5235a.6317.6317,0,0,0,.3765.1895.4152.4152,0,0,0,.3243-.1643A.44.44,0,0,0,21.6123,82.65ZM19.94,84.1179l-.6887-.6153-.6091.6822.6888.615a.65.65,0,0,0,.3736.1927.4118.4118,0,0,0,.3272-.1676Q20.3427,84.4772,19.94,84.1179Zm0,0-.6887-.6153-.6091.6822.6888.615a.65.65,0,0,0,.3736.1927.4118.4118,0,0,0,.3272-.1676Q20.3427,84.4772,19.94,84.1179ZM21.6123,82.65a.6119.6119,0,0,0-.2276-.3563l-.5865-.5238-.6091.6822.5869.5235a.6317.6317,0,0,0,.3765.1895.4152.4152,0,0,0,.3243-.1643A.44.44,0,0,0,21.6123,82.65Zm5.3214,6.59,1.0163.581.3861-1.8543Zm0,0,1.0163.581.3861-1.8543Zm-5.3214-6.59a.6119.6119,0,0,0-.2276-.3563l-.5865-.5238-.6091.6822.5869.5235a.6317.6317,0,0,0,.3765.1895.4152.4152,0,0,0,.3243-.1643A.44.44,0,0,0,21.6123,82.65ZM19.94,84.1179l-.6887-.6153-.6091.6822.6888.615a.65.65,0,0,0,.3736.1927.4118.4118,0,0,0,.3272-.1676Q20.3427,84.4772,19.94,84.1179Z" transform="translate(0 0)"/><polygon class="cls-2" points="42.313 8.901 41.733 5.119 44.809 8.519 46.444 8.268 45.537 2.353 44.015 2.586 44.604 6.434 41.517 2.969 39.884 3.219 40.79 9.135 42.313 8.901"/><polygon class="cls-2" points="34.085 8.657 33.575 8.036 33.623 8.838 34.085 8.657"/><path class="cls-2" d="M33.5242,5.14l-1.8609.7289.1437,6.37,1.4922-.5843L33.24,10.6274l2.34-.9164.6548.7942,1.5013-.5878ZM33.1734,9.54l-.1763-2.98,1.8941,2.3073Z" transform="translate(0 0)"/><polygon class="cls-2" points="24.331 16.962 22.62 14.519 22.971 14.185 25.496 16.146 26.623 15.357 25.643 12.313 26.077 12.097 27.788 14.54 29.042 13.662 25.609 8.761 23.921 9.943 25.145 14.409 21.333 11.756 19.636 12.945 23.07 17.846 24.331 16.962"/></svg>