<svg id="Layer_1" data-name="Layer 1" xmlns="http://www.w3.org/2000/svg" width="1924" height="1244.9412" viewBox="0 0 1924 1244.9412"><defs><style>.cls-1{fill:#fff;}</style></defs><path class="cls-1" d="M1872.5906,377.5294H127.4094A89.4173,89.4173,0,0,0,38,466.9388v839.7694a89.4173,89.4173,0,0,0,89.4094,89.4094H943.4118v113.1765H421.6683a44.1352,44.1352,0,0,0-44.1389,44.1388v24.8987a44.1352,44.1352,0,0,0,44.1389,44.139H1578.3316a44.1353,44.1353,0,0,0,44.139-44.139v-24.8987a44.1353,44.1353,0,0,0-44.139-44.1388H1056.5882V1396.1176h816.0024A89.4173,89.4173,0,0,0,1962,1306.7082V466.9388A89.4173,89.4173,0,0,0,1872.5906,377.5294ZM533.3671,1593.4377h-9.95v-23.06l-7.7023,23.06H509.49l-7.9853-23.06v23.06H490.91V1538.327h10.5946l10.7518,30.196,11.16-30.196h9.95Zm49.4362,0h-9.9344v-23.06H555.5623v23.06H544.9677V1538.327h37.8356Zm49.4517,0h-9.95l-17.3065-31.8151v31.8151H594.4038V1538.327h10.5946l17.3065,30.8878V1538.327h9.95Zm49.4362-45.6636H654.45v13.6127h27.241v8.9912H654.45v23.06H643.8556V1538.327h37.8356Zm49.4518,22.6039H718.2063l12.9367,23.06h-9.95l-13.5812-23.06h-3.7254v23.06H693.2918V1538.327H731.143Zm49.4361-22.6039H753.3382v13.6127h27.2409v8.9912H753.3382v13.6126h27.2409v9.4471H742.7436V1538.327h37.8355Zm49.4518,40.8221-3.9612,4.8415H792.18V1538.327h33.8587l3.9925,4.8415ZM1493.67,1538.327h37.8354v55.1107h-9.9343v-23.06h-17.3223v23.06H1493.67Zm-49.452,0h37.8354v32.051h-12.9209l12.9209,23.06h-9.9342l-13.5812-23.06h-3.7252v23.06h-10.5948Zm-49.436,0h37.8354v55.1107h-9.9343v-23.06H1405.36v23.06h-10.5788Zm-49.452,0h37.8356v20.8748l-4.637,6.8692,4.637,6.9164v20.45H1345.33Zm-49.436,0h37.8356v55.1107h-9.9345v-23.06h-17.3223v23.06h-10.5788Zm-49.4518,0h37.8354v32.051h-12.9209l12.9209,23.06h-9.9342l-13.5812-23.06h-3.7254v23.06h-10.5946Zm-49.436,0h37.8354v55.1107h-9.9343v-23.06h-17.3223v23.06h-10.5788Zm-49.452,0h37.8355v20.8748l-4.6371,6.8692,4.6371,6.9164v20.45h-37.8355Zm-204.142-255.3858H830.2353V603.8824H603.8824V830.2353H490.7059V603.8824H264.3529v679.0588H151.1765V490.7059H943.4118Zm905.4117-452.7059-56.5882,56.5882,56.5882,56.5883v339.5294H1056.5882V490.7059h792.2353Z" transform="translate(-38 -377.5294)"/><rect class="cls-1" x="1131.7647" y="565.8824" width="565.8824" height="226.3529"/><rect class="cls-1" x="1131.7647" y="226.3529" width="565.8824" height="226.3529"/><rect class="cls-1" x="1466.2484" y="1170.2447" width="17.3223" height="13.6127"/><rect class="cls-1" x="1416.8124" y="1170.2447" width="17.3064" height="13.6127"/><rect class="cls-1" x="1367.3604" y="1170.2447" width="17.3223" height="13.6127"/><rect class="cls-1" x="1317.9242" y="1192.8485" width="17.3066" height="13.6127"/><rect class="cls-1" x="1317.9242" y="1170.2447" width="17.3066" height="13.6127"/><rect class="cls-1" x="1268.4724" y="1170.2447" width="17.3223" height="13.6127"/><rect class="cls-1" x="1219.0364" y="1170.2447" width="17.3066" height="13.6127"/><rect class="cls-1" x="1169.5846" y="1170.2447" width="17.3223" height="13.6127"/><rect class="cls-1" x="1120.1484" y="1192.8485" width="17.3066" height="13.6127"/><rect class="cls-1" x="1120.1484" y="1170.2447" width="17.3066" height="13.6127"/><rect class="cls-1" x="764.7743" y="1170.2447" width="17.3065" height="36.2165"/><rect class="cls-1" x="665.8863" y="1170.2447" width="17.3066" height="13.6127"/><rect class="cls-1" x="517.5623" y="1170.2447" width="17.3066" height="13.6127"/></svg>