<svg id="Layer_1" data-name="Layer 1" xmlns="http://www.w3.org/2000/svg" width="48.618" height="32.412" viewBox="0 0 48.618 32.412"><defs><style>.cls-1{fill:#b03ce3;}</style></defs><path d="M49.3086,28.2686q0,4.9008,0,9.8015c-.0005,1.4-.6789,2.1512-1.9529,2.1521q-6.1506.004-12.3011,0c-1.2626-.0007-1.9745-.761-1.9758-2.1483q-.0093-9.8568,0-19.7137c.0012-1.3585.7033-2.1131,1.9472-2.1146q6.1757-.0075,12.3513,0c1.2874.0016,1.9306.7307,1.9312,2.1658Q49.3105,23.34,49.3086,28.2686ZM34.1977,36.3027h13.98c.0109-.2241.0287-.4214.0287-.6187.0015-5.6864-.0075-11.3729.0143-17.0592.0023-.5891-.1708-.6953-.6576-.6931q-6.3777.0291-12.7554,0c-.4734-.0021-.6227.1231-.621.6673.0178,5.7048.011,11.41.011,17.1145Zm10.3332,1.8878a.8461.8461,0,1,0-1.6831-.0334.9094.9094,0,0,0,.8583.9476A.876.876,0,0,0,44.5309,38.1905Zm-4.9875.0361a.8428.8428,0,1,0-.8574.8792A.887.887,0,0,0,39.5434,38.2266Zm1.658.8787a.8758.8758,0,0,0,.8366-.9.8407.8407,0,1,0-.8366.9Z" transform="translate(-0.691 -8.794)"/><path d="M37.0461,11.221H5.776V22.5088c-.6726,0-1.3007.01-1.9277-.0129-.08-.0029-.1843-.1677-.2232-.28a1.25,1.25,0,0,1-.0117-.3841q0-5.6217,0-11.2433c0-1.2187.5164-1.7923,1.63-1.7926q16.145-.0033,32.29,0c1.1313,0,1.6647.5917,1.6684,1.8305.0037,1.1816-.0106,2.3634.0071,3.5446.0059.3858-.11.53-.46.51a12.7689,12.7689,0,0,0-1.3052-.0014c-.3111.0142-.4062-.1286-.4022-.456C37.0539,13.2309,37.0461,12.2381,37.0461,11.221Z" transform="translate(-0.691 -8.794)"/><path d="M10.29,30.0085h.593q10.0908,0,20.1817-.01c.44-.0008.6178.0963.6011.6317-.0374,1.1982-.0225,2.3991-.0057,3.5985.0053.3807-.1018.5111-.4564.5106q-10.2414-.0141-20.4829-.02c-.1437,0-.41-.1814-.4123-.2828C10.2817,32.9854,10.29,31.5326,10.29,30.0085Zm12.056,2.3525a.9853.9853,0,0,0-.9508-1.041,1.0056,1.0056,0,0,0-.9588,1.04,1.0535,1.0535,0,0,0,.9571,1.0632A1.0382,1.0382,0,0,0,22.3463,32.361Z" transform="translate(-0.691 -8.794)"/><path d="M26.79,40.132H15.8973c.183-.2623.2642-.48.41-.5717a3.0694,3.0694,0,0,0,1.2989-2.7c.0192-.4423.1684-.5972.58-.5934q3.2111.03,6.4224-.0009c.3882-.0039.5421.1388.5712.5483.0248.3482.0952.6924.1433,1.0388a2.0765,2.0765,0,0,0,.77,1.37c.27.2226.5125.4866.7674.732Z" transform="translate(-0.691 -8.794)"/><path d="M7.6348,24.0906q-2.7612-.0306-5.5226.0013c-1.0015.0129-1.4192.519-1.42,1.6194Q.6891,29.2.6916,32.6884q0,3.4608.0009,6.9217c.0013,1.0866.4545,1.5891,1.4428,1.592q2.7363.0076,5.4725,0c.9857-.0029,1.4593-.5131,1.46-1.5866q.0062-6.9494,0-13.8988C9.0672,24.6332,8.6143,24.1014,7.6348,24.0906ZM5.5663,25.7592l.0088.122H4.2008l-.0048-.122ZM4.8811,40.4934a.81.81,0,1,1,.8136-.81A.8121.8121,0,0,1,4.8811,40.4934ZM7.72,38.4346c-1.9224-.0251-3.8452-.0164-5.7678-.0055-.3271.0018-.48-.0787-.4788-.489.0125-3.5218.0074-7.0438.009-10.5658,0-.09.0163-.179.0294-.3141H8.2436c.0112.2107.0291.39.0292.5692.0017,3.3929-.0069,6.7858.0105,10.1786C8.2858,38.2916,8.1649,38.44,7.72,38.4346Z" transform="translate(-0.691 -8.794)"/><path class="cls-1" d="M49.3086,28.2686q0,4.9008,0,9.8015c-.0005,1.4-.6789,2.1512-1.9529,2.1521q-6.1506.004-12.3011,0c-1.2626-.0007-1.9745-.761-1.9758-2.1483q-.0093-9.8568,0-19.7137c.0012-1.3585.7033-2.1131,1.9472-2.1146q6.1757-.0075,12.3513,0c1.2874.0016,1.9306.7307,1.9312,2.1658Q49.3105,23.34,49.3086,28.2686ZM34.1977,36.3027h13.98c.0109-.2241.0287-.4214.0287-.6187.0015-5.6864-.0075-11.3729.0143-17.0592.0023-.5891-.1708-.6953-.6576-.6931q-6.3777.0291-12.7554,0c-.4734-.0021-.6227.1231-.621.6673.0178,5.7048.011,11.41.011,17.1145Zm10.3332,1.8878a.8461.8461,0,1,0-1.6831-.0334.9094.9094,0,0,0,.8583.9476A.876.876,0,0,0,44.5309,38.1905Zm-4.9875.0361a.8428.8428,0,1,0-.8574.8792A.887.887,0,0,0,39.5434,38.2266Zm1.658.8787a.8758.8758,0,0,0,.8366-.9.8407.8407,0,1,0-.8366.9Z" transform="translate(-0.691 -8.794)"/><path class="cls-1" d="M37.0461,11.221H5.776V22.5088c-.6726,0-1.3007.01-1.9277-.0129-.08-.0029-.1843-.1677-.2232-.28a1.25,1.25,0,0,1-.0117-.3841q0-5.6217,0-11.2433c0-1.2187.5164-1.7923,1.63-1.7926q16.145-.0033,32.29,0c1.1313,0,1.6647.5917,1.6684,1.8305.0037,1.1816-.0106,2.3634.0071,3.5446.0059.3858-.11.53-.46.51a12.7689,12.7689,0,0,0-1.3052-.0014c-.3111.0142-.4062-.1286-.4022-.456C37.0539,13.2309,37.0461,12.2381,37.0461,11.221Z" transform="translate(-0.691 -8.794)"/><path class="cls-1" d="M10.29,30.0085h.593q10.0908,0,20.1817-.01c.44-.0008.6178.0963.6011.6317-.0374,1.1982-.0225,2.3991-.0057,3.5985.0053.3807-.1018.5111-.4564.5106q-10.2414-.0141-20.4829-.02c-.1437,0-.41-.1814-.4123-.2828C10.2817,32.9854,10.29,31.5326,10.29,30.0085Zm12.056,2.3525a.9853.9853,0,0,0-.9508-1.041,1.0056,1.0056,0,0,0-.9588,1.04,1.0535,1.0535,0,0,0,.9571,1.0632A1.0382,1.0382,0,0,0,22.3463,32.361Z" transform="translate(-0.691 -8.794)"/><path class="cls-1" d="M26.79,40.132H15.8973c.183-.2623.2642-.48.41-.5717a3.0694,3.0694,0,0,0,1.2989-2.7c.0192-.4423.1684-.5972.58-.5934q3.2111.03,6.4224-.0009c.3882-.0039.5421.1388.5712.5483.0248.3482.0952.6924.1433,1.0388a2.0765,2.0765,0,0,0,.77,1.37c.27.2226.5125.4866.7674.732Z" transform="translate(-0.691 -8.794)"/><path class="cls-1" d="M7.6348,24.0906q-2.7612-.0306-5.5226.0013c-1.0015.0129-1.4192.519-1.42,1.6194Q.6891,29.2.6916,32.6884q0,3.4608.0009,6.9217c.0013,1.0866.4545,1.5891,1.4428,1.592q2.7363.0076,5.4725,0c.9857-.0029,1.4593-.5131,1.46-1.5866q.0062-6.9494,0-13.8988C9.0672,24.6332,8.6143,24.1014,7.6348,24.0906ZM5.5663,25.7592l.0088.122H4.2008l-.0048-.122ZM4.8811,40.4934a.81.81,0,1,1,.8136-.81A.8121.8121,0,0,1,4.8811,40.4934ZM7.72,38.4346c-1.9224-.0251-3.8452-.0164-5.7678-.0055-.3271.0018-.48-.0787-.4788-.489.0125-3.5218.0074-7.0438.009-10.5658,0-.09.0163-.179.0294-.3141H8.2436c.0112.2107.0291.39.0292.5692.0017,3.3929-.0069,6.7858.0105,10.1786C8.2858,38.2916,8.1649,38.44,7.72,38.4346Z" transform="translate(-0.691 -8.794)"/></svg>